{"scenes": [{"nodes": [0]}], "nodes": [{"mesh": 0}], "meshes": [{"primitives": [{"attributes": {"POSITION": 1, "NORMAL": 2}, "indices": 0}]}], "buffers": [{"uri": "data:application/octet-stream;base64,", "byteLength": 108}], "bufferViews": [{"buffer": 0, "byteLength": 12, "byteOffset": 0}, {"buffer": 0, "byteLength": 48, "byteOffset": 12}, {"buffer": 0, "byteLength": 48, "byteOffset": 60}], "accessors": [{"bufferView": 0, "componentType": 5123, "type": "SCALAR", "count": 6, "byteOffset": 0, "max": [3], "min": [0]}, {"bufferView": 1, "componentType": 5126, "type": "VEC3", "count": 4, "byteOffset": 0, "max": [0.5, 0, 0.5], "min": [-0.5, 0, -0.5]}, {"bufferView": 2, "componentType": 5126, "type": "VEC3", "count": 4, "byteOffset": 0, "max": [0, 1.0, 0], "min": [0, 1.0, 0]}], "asset": {"version": "2.0", "generator": "timweri.simple-gltf-glb"}}