{"scenes": [{"nodes": [0]}], "nodes": [{"mesh": 0}], "meshes": [{"primitives": [{"attributes": {"POSITION": 1}, "indices": 0}]}], "buffers": [{"uri": "data:application/octet-stream;base64,", "byteLength": 44}], "bufferViews": [{"buffer": 0, "byteLength": 6, "byteOffset": 0, "target": 34963}, {"buffer": 0, "byteLength": 36, "byteOffset": 8, "target": 34962}], "accessors": [{"bufferView": 0, "componentType": 5123, "type": "SCALAR", "count": 3, "byteOffset": 0, "max": [2], "min": [0]}, {"bufferView": 1, "componentType": 5126, "type": "VEC3", "count": 3, "byteOffset": 0, "max": [1.0, 1.0, 0.0], "min": [0.0, 0.0, 0.0]}], "asset": {"version": "2.0"}}